<?xml version="1.0" encoding="UTF-8" standalone="no"?>
<svg width="1438px" height="244px" viewBox="0 0 1438 244" version="1.1" xmlns="http://www.w3.org/2000/svg" xmlns:xlink="http://www.w3.org/1999/xlink">
    <!-- Generator: Sketch 45.2 (43514) - http://www.bohemiancoding.com/sketch -->
    <title>logo-home-header-inverse</title>
    <desc>Created with Sketch.</desc>
    <defs>
        <path d="M118.627037,0 C205.770535,0 225.587571,61.8067293 225.587571,61.8067293 C225.587571,61.8067293 231.553466,77.869214 215.845604,85.1174489 C200.137743,92.3656838 190.746157,76.5359908 190.746157,76.5359908 C190.746157,76.5359908 171.554623,34.8834424 118.627037,34.8834424 C65.6994507,34.8834424 37.1529549,82.8006778 37.1529549,120.146501 C37.1529549,157.492324 64.5303343,204.810934 118.627037,204.810934 C172.723739,204.810934 190.770505,146.134603 244.592283,146.134603 C298.303526,146.134603 314.196286,204.810934 355.627037,204.810934 C397.057787,204.810934 399.240922,180.919226 399.240922,170.435633 C399.240922,159.95204 396.901942,141.084216 355.627037,141.084216 C308.544224,141.084216 269.58752,115.952091 269.58752,71.485015 C269.58752,27.0179393 313.023603,2.71605641e-15 355.627037,0 C398.230471,0 435.585099,28.7783192 436.200984,71.485015 C436.200984,71.485015 436.200984,88.4351963 418.616215,88.4351963 C401.031445,88.4351963 399.240922,71.485015 399.240922,71.485015 C399.240922,54.2866354 382.575224,35 355.627037,35 C320.921537,35 308.544224,52.3493285 308.544224,70.9594972 C308.544224,89.5696659 331.878986,103.595299 355.627037,103.595299 C393.720136,103.595299 436.390754,115.409542 436.200984,170.435633 C436.011214,225.461723 391.6542,241.965851 355.627037,241.965851 C290.396769,241.965851 285.662957,182 244.592283,182 C199.138575,182 190.746157,242.04424 118.627037,242.04424 C31.9877226,242.04424 5.20223541e-15,168.053772 0,120.146501 C0,72.2392303 31.4835384,1.04463708e-14 118.627037,0 Z M711.499708,231.73357 C711.499708,231.73357 691.091145,157.185794 664.302802,98.5565961 C641.199163,47.9917723 610.671944,35.5895288 579.627037,35.5895288 C525.530334,35.5895288 498.152955,85.06305 498.152955,122.408873 C498.152955,159.754697 526.699451,205.589529 579.627037,205.589529 C632.554623,205.589529 651.746157,166.019384 651.746157,166.019384 C651.746157,166.019384 662.319638,151.038226 676.414212,158.40954 C690.508785,165.780854 686.587571,180.748645 686.587571,180.748645 C686.587571,180.748645 666.770535,242.555374 579.627037,242.555374 C492.483538,242.555374 461,178.930756 461,122.408873 C461,65.8869908 504.174764,1.4744903 579.627037,1.4744903 C607.066274,1.4744903 665.260645,10.9699466 694.585762,78.2199887 L726.744318,164.086605 L751.689089,121.589529 C751.689089,121.589529 741.064263,105.729818 741.064263,85.6623729 C741.064263,65.5949281 752.953182,47.9917723 771.742379,47.9917723 C790.531577,47.9917723 802.55621,64.8197258 802.55621,85.6623729 C802.55621,106.50502 790.531577,121.589529 790.531577,121.589529 L816.180893,164.086605 L868.048565,10.9699466 C868.048565,10.9699466 874.519451,-1.56215381 888.096489,1.4744903 C901.673527,4.51113442 898.828949,20.6383363 898.828949,20.6383363 L831.563143,232.008852 C831.563143,232.008852 827.826821,242.55538 816.180893,242.555374 C804.534964,242.555369 800.467435,232.109435 800.467435,232.109435 L771.742379,169.391475 L741.064263,232.541769 C741.064263,232.541769 737.257963,242.55538 726.744318,242.55538 C716.230672,242.55538 711.499708,231.73357 711.499708,231.73357 Z M771.742379,91.3808227 C771.742379,91.3808227 777.29597,86.4010099 777.29597,79.2017154 C777.29597,76.6778297 775.19871,73.4719538 771.742379,73.4719538 C768.286049,73.4719538 766.13097,76.6709718 766.13097,79.2017154 C766.13097,86.5780764 771.742379,91.3808227 771.742379,91.3808227 Z" id="path-1"></path>
        <path d="M118.627037,0 C205.770535,0 225.587571,61.8067293 225.587571,61.8067293 C225.587571,61.8067293 231.553466,77.869214 215.845604,85.1174489 C200.137743,92.3656838 190.746157,76.5359908 190.746157,76.5359908 C190.746157,76.5359908 171.554623,34.8834424 118.627037,34.8834424 C65.6994507,34.8834424 37.1529549,82.8006778 37.1529549,120.146501 C37.1529549,157.492324 64.5303343,204.810934 118.627037,204.810934 C172.723739,204.810934 190.770505,146.134603 244.592283,146.134603 C298.303526,146.134603 314.196286,204.810934 355.627037,204.810934 C397.057787,204.810934 399.240922,180.919226 399.240922,170.435633 C399.240922,159.95204 396.901942,141.084216 355.627037,141.084216 C308.544224,141.084216 269.58752,115.952091 269.58752,71.485015 C269.58752,27.0179393 313.023603,2.71605641e-15 355.627037,0 C398.230471,0 435.585099,28.7783192 436.200984,71.485015 C436.200984,71.485015 436.200984,88.4351963 418.616215,88.4351963 C401.031445,88.4351963 399.240922,71.485015 399.240922,71.485015 C399.240922,54.2866354 382.575224,35 355.627037,35 C320.921537,35 308.544224,52.3493285 308.544224,70.9594972 C308.544224,89.5696659 331.878986,103.595299 355.627037,103.595299 C393.720136,103.595299 436.390754,115.409542 436.200984,170.435633 C436.011214,225.461723 391.6542,241.965851 355.627037,241.965851 C290.396769,241.965851 285.662957,182 244.592283,182 C199.138575,182 190.746157,242.04424 118.627037,242.04424 C31.9877226,242.04424 5.20223541e-15,168.053772 0,120.146501 C0,72.2392303 31.4835384,1.04463708e-14 118.627037,0 Z M711.499708,231.73357 C711.499708,231.73357 691.091145,157.185794 664.302802,98.5565961 C641.199163,47.9917723 610.671944,35.5895288 579.627037,35.5895288 C525.530334,35.5895288 498.152955,85.06305 498.152955,122.408873 C498.152955,159.754697 526.699451,205.589529 579.627037,205.589529 C632.554623,205.589529 651.746157,166.019384 651.746157,166.019384 C651.746157,166.019384 662.319638,151.038226 676.414212,158.40954 C690.508785,165.780854 686.587571,180.748645 686.587571,180.748645 C686.587571,180.748645 666.770535,242.555374 579.627037,242.555374 C492.483538,242.555374 461,178.930756 461,122.408873 C461,65.8869908 504.174764,1.4744903 579.627037,1.4744903 C607.066274,1.4744903 665.260645,10.9699466 694.585762,78.2199887 L726.744318,164.086605 L751.689089,121.589529 C751.689089,121.589529 741.064263,105.729818 741.064263,85.6623729 C741.064263,65.5949281 752.953182,47.9917723 771.742379,47.9917723 C790.531577,47.9917723 802.55621,64.8197258 802.55621,85.6623729 C802.55621,106.50502 790.531577,121.589529 790.531577,121.589529 L816.180893,164.086605 L868.048565,10.9699466 C868.048565,10.9699466 874.519451,-1.56215381 888.096489,1.4744903 C901.673527,4.51113442 898.828949,20.6383363 898.828949,20.6383363 L831.563143,232.008852 C831.563143,232.008852 827.826821,242.55538 816.180893,242.555374 C804.534964,242.555369 800.467435,232.109435 800.467435,232.109435 L771.742379,169.391475 L741.064263,232.541769 C741.064263,232.541769 737.257963,242.55538 726.744318,242.55538 C716.230672,242.55538 711.499708,231.73357 711.499708,231.73357 Z M771.742379,91.3808227 C771.742379,91.3808227 777.29597,86.4010099 777.29597,79.2017154 C777.29597,76.6778297 775.19871,73.4719538 771.742379,73.4719538 C768.286049,73.4719538 766.13097,76.6709718 766.13097,79.2017154 C766.13097,86.5780764 771.742379,91.3808227 771.742379,91.3808227 Z" id="path-3"></path>
    </defs>
    <g id="Page-1" stroke="none" stroke-width="1" fill="none" fill-rule="evenodd">
        <g id="logo-home-header-inverse" transform="translate(-4.000000, -4.000000)">
            <g id="cscw">
                <g id="cs-Clipped" transform="translate(4.000000, 4.000000)">
                    <mask id="mask-2" fill="white">
                        <use xlink:href="#path-1"></use>
                    </mask>
                    <g id="path-1"></g>
                    <g id="cs" mask="url(#mask-2)">
                        <g transform="translate(-34.000000, -64.000000)" id="Group">
                            <g>
                                <polygon id="Path-3" fill="#FFFFFF" fill-rule="nonzero" points="153 186 142.635165 34.3746405 190.573024 34.3746405"></polygon>
                                <polygon id="Path-3" fill="#FFFFFF" fill-rule="nonzero" points="280.469621 305 271.234811 176.551949 220.2047 186"></polygon>
                                <polygon id="Path-3" fill="#FFFFFF" fill-rule="nonzero" points="280.469621 305 271.234811 176.551949 314.265929 186"></polygon>
                                <polygon id="Path-4" fill="#FFFFFF" fill-rule="nonzero" points="153.056687 184.176043 143.426946 0.568761637 72.728707 19.2420282"></polygon>
                                <polygon id="Path-4" fill="#FFFFFF" fill-rule="nonzero" points="153.056687 184.176043 262 86.4888414 288.63053 142.492175"></polygon>
                                <polygon id="Path-4" fill="#FFFFFF" fill-rule="nonzero" points="390 133.004047 484.890844 80.6003404 481.268164 171.687679"></polygon>
                                <polygon id="Path-4" fill="#FFFFFF" fill-rule="nonzero" points="390 236.543669 485.450712 186 489.890844 240.40991"></polygon>
                                <polygon id="Path-4" fill="#FFFFFF" fill-rule="nonzero" points="390 236.543669 336.07446 305 390 322.585457"></polygon>
                                <polygon id="Path-4" fill="#FFFFFF" fill-rule="nonzero" points="390 133.004047 484.890844 80.6003404 428.202495 47.9040105"></polygon>
                                <polygon id="Path-4" fill="#FFFFFF" fill-rule="nonzero" points="390 133.004047 368.352535 38.1952292 428.202495 47.9040105"></polygon>
                                <polygon id="Path-4" fill="#FFFFFF" fill-rule="nonzero" points="390 133.004047 327.462371 201 371.101826 225.984206"></polygon>
                                <polygon id="Path-4" fill="#FFFFFF" fill-rule="nonzero" points="153.056687 184.176043 0.805343836 136.709061 72.728707 19.2420282"></polygon>
                                <polygon id="Path-4" fill="#FFFFFF" fill-rule="nonzero" points="153.056687 184.176043 6.64479042 201 6.64479042 246.267212"></polygon>
                                <polygon id="Path-4" fill="#FFFFFF" fill-rule="nonzero" points="153.056687 184.176043 80.2540005 343 153 362.915761"></polygon>
                            </g>
                        </g>
                    </g>
                </g>
                <g id="cw-Clipped" transform="translate(4.000000, 4.000000)">
                    <mask id="mask-4" fill="white">
                        <use xlink:href="#path-3"></use>
                    </mask>
                    <use id="path-1" fill-opacity="0.7" fill="#FFFFFF" xlink:href="#path-3"></use>
                    <g id="cw" mask="url(#mask-4)">
                        <g transform="translate(450.000000, -18.000000)" id="Group">
                            <g>
                                <polygon id="Path-5" fill="#FFFFFF" fill-rule="nonzero" points="129.569049 138.795016 194.632429 15.3768671 236.313291 49.8492907"></polygon>
                                <polygon id="Path-5" fill="#FFFFFF" fill-rule="nonzero" points="129.569049 138.795016 129.569049 0.194630684 76.0524464 13"></polygon>
                                <polygon id="Path-5" fill="#FFFFFF" fill-rule="nonzero" points="129.569049 138.795016 11 76.1526715 32.2746551 41.4264296"></polygon>
                                <polygon id="Path-5" fill="#FFFFFF" fill-rule="nonzero" points="129.569049 138.795016 11 192.829017 24.2032347 246.863019"></polygon>
                                <polygon id="Path-5" fill="#FFFFFF" fill-rule="nonzero" points="129.569049 138.795016 217.850942 259 167.184914 272.686097"></polygon>
                                <polygon id="Path-5" fill="#FFFFFF" fill-rule="nonzero" points="129.569049 138.795016 11 76.1526715 0.559088194 114.713521"></polygon>
                                <polygon id="Path-6" fill="#FFFFFF" fill-rule="nonzero" points="301.56734 140.031155 328.935607 205.685112 303.017039 252.658446 261.073887 140"></polygon>
                                <polygon id="Path-6" fill="#FFFFFF" fill-rule="nonzero" points="353.403122 75.1220431 364.849357 140 340.835842 140 320.525728 107.561022 322.519324 98.4959698"></polygon>
                                <polygon id="Path-7" fill="#FFFFFF" fill-rule="nonzero" points="321.579002 98.6752805 305.37468 57.4761757 280.391192 92.694492"></polygon>
                            </g>
                        </g>
                    </g>
                </g>
            </g>
            <path d="M1039.585,213.535 L964.03,213.535 L1047.175,107.62 C1059.94,91.405 1058.905,66.91 1051.315,48.97 C1044.76,32.065 1031.305,18.61 1014.4,11.02 C988.525,-0.365 956.785,4.465 935.395,25.855 L935.395,26.2 C923.32,38.275 915.385,55.18 915.385,73.81 C915.385,83.125 923.32,90.715 932.635,90.715 C942.295,90.715 949.885,83.125 949.885,73.81 C949.885,61.39 956.785,50.005 967.135,43.795 C998.875,25.855 1033.375,58.63 1018.54,90.715 L917.8,218.71 C915.04,222.85 913.315,225.61 913.315,230.44 C913.315,239.755 920.56,247 929.875,247 L1039.585,247 C1048.9,247 1056.145,239.755 1056.145,230.44 C1056.145,221.125 1048.9,213.535 1039.585,213.535 Z M1217.26,177.31 C1216.915,215.605 1185.52,246.655 1147.225,246.655 C1108.93,246.655 1077.88,215.605 1077.535,177.31 L1077.535,74.845 C1077.88,36.55 1108.93,5.5 1147.225,5.5 C1185.52,5.5 1216.915,36.55 1217.26,74.845 L1217.26,177.31 Z M1147.225,212.5 C1167.235,212.5 1183.105,196.63 1183.105,176.62 L1183.105,75.535 C1183.105,55.87 1167.235,39.655 1147.225,39.655 C1127.56,39.655 1111.69,55.87 1111.69,75.535 L1111.69,176.62 C1111.69,196.63 1127.56,212.5 1147.225,212.5 Z M1231.06,22.405 C1231.06,31.72 1238.65,39.31 1248.655,39.31 L1248.655,230.095 C1248.655,239.755 1256.245,247.345 1265.905,247.345 C1275.22,247.345 1282.81,239.755 1282.81,230.095 L1282.81,21.025 C1282.465,14.47 1276.6,5.5 1268.665,5.5 L1248.31,5.5 C1238.65,5.5 1231.06,12.745 1231.06,22.405 Z M1441.855,72.43 C1441.855,94.51 1432.195,113.83 1417.705,125.905 C1432.195,138.325 1441.855,156.955 1441.855,179.035 C1441.855,216.295 1409.77,245.62 1372.51,247 C1337.665,247 1303.51,217.33 1303.51,179.035 C1303.51,156.955 1313.17,138.325 1327.66,125.905 C1313.17,113.83 1303.51,94.51 1303.51,72.43 C1303.51,35.515 1333.87,4.81 1372.51,4.81 C1411.15,4.81 1439.785,32.755 1441.855,72.43 Z M1372.51,213.19 C1390.105,212.155 1407.7,198.7 1407.7,179.035 C1407.7,160.06 1393.21,143.155 1372.51,142.81 C1353.88,142.81 1337.665,158.68 1337.665,179.035 C1337.665,197.665 1353.535,211.465 1372.51,213.19 Z M1372.51,38.275 C1354.57,38.965 1337.665,52.765 1337.665,72.43 C1337.665,92.095 1351.81,108.655 1371.475,108.655 L1373.89,108.655 C1393.555,108.655 1407.7,92.095 1407.7,72.43 C1407.7,53.455 1391.83,39.655 1372.51,38.275 Z" id="2018" fill="#FFFFFF" fill-rule="nonzero"></path>
        </g>
    </g>
</svg>