<?xml version="1.0" encoding="UTF-8" standalone="no"?>
<svg width="1456px" height="263px" viewBox="0 0 1456 263" version="1.1" xmlns="http://www.w3.org/2000/svg" xmlns:xlink="http://www.w3.org/1999/xlink">
    <!-- Generator: Sketch 42 (36781) - http://www.bohemiancoding.com/sketch -->
    <title>logo_color_h</title>
    <desc>Created with Sketch.</desc>
    <defs>
        <path d="M118.627037,0 C205.770535,0 225.587571,61.8067293 225.587571,61.8067293 C225.587571,61.8067293 231.553466,77.869214 215.845604,85.1174489 C200.137743,92.3656838 190.746157,76.5359908 190.746157,76.5359908 C190.746157,76.5359908 171.554623,34.8834424 118.627037,34.8834424 C65.6994507,34.8834424 37.1529549,82.8006778 37.1529549,120.146501 C37.1529549,157.492324 64.5303343,204.810934 118.627037,204.810934 C172.723739,204.810934 190.770505,146.134603 244.592283,146.134603 C298.303526,146.134603 314.196286,204.810934 355.627037,204.810934 C397.057787,204.810934 399.240922,180.919226 399.240922,170.435633 C399.240922,159.95204 396.901942,141.084216 355.627037,141.084216 C308.544224,141.084216 269.58752,115.952091 269.58752,71.485015 C269.58752,27.0179393 313.023603,2.71605641e-15 355.627037,0 C398.230471,0 435.585099,28.7783192 436.200984,71.485015 C436.200984,71.485015 436.200984,88.4351963 418.616215,88.4351963 C401.031445,88.4351963 399.240922,71.485015 399.240922,71.485015 C399.240922,54.2866354 382.575224,35 355.627037,35 C320.921537,35 308.544224,52.3493285 308.544224,70.9594972 C308.544224,89.5696659 331.878986,103.595299 355.627037,103.595299 C393.720136,103.595299 436.390754,115.409542 436.200984,170.435633 C436.011214,225.461723 391.6542,241.965851 355.627037,241.965851 C290.396769,241.965851 285.662957,182 244.592283,182 C199.138575,182 190.746157,242.04424 118.627037,242.04424 C31.9877226,242.04424 5.20223541e-15,168.053772 0,120.146501 C0,72.2392303 31.4835384,1.04463708e-14 118.627037,0 Z M711.499708,231.73357 C711.499708,231.73357 691.091145,157.185794 664.302802,98.5565961 C641.199163,47.9917723 610.671944,35.5895288 579.627037,35.5895288 C525.530334,35.5895288 498.152955,85.06305 498.152955,122.408873 C498.152955,159.754697 526.699451,205.589529 579.627037,205.589529 C632.554623,205.589529 651.746157,166.019384 651.746157,166.019384 C651.746157,166.019384 662.319638,151.038226 676.414212,158.40954 C690.508785,165.780854 686.587571,180.748645 686.587571,180.748645 C686.587571,180.748645 666.770535,242.555374 579.627037,242.555374 C492.483538,242.555374 461,178.930756 461,122.408873 C461,65.8869908 504.174764,1.4744903 579.627037,1.4744903 C607.066274,1.4744903 665.260645,10.9699466 694.585762,78.2199887 L726.744318,164.086605 L751.689089,121.589529 C751.689089,121.589529 741.064263,105.729818 741.064263,85.6623729 C741.064263,65.5949281 752.953182,47.9917723 771.742379,47.9917723 C790.531577,47.9917723 802.55621,64.8197258 802.55621,85.6623729 C802.55621,106.50502 790.531577,121.589529 790.531577,121.589529 L816.180893,164.086605 L868.048565,10.9699466 C868.048565,10.9699466 874.519451,-1.56215381 888.096489,1.4744903 C901.673527,4.51113442 898.828949,20.6383363 898.828949,20.6383363 L831.563143,232.008852 C831.563143,232.008852 827.826821,242.55538 816.180893,242.555374 C804.534964,242.555369 800.467435,232.109435 800.467435,232.109435 L771.742379,169.391475 L741.064263,232.541769 C741.064263,232.541769 737.257963,242.55538 726.744318,242.55538 C716.230672,242.55538 711.499708,231.73357 711.499708,231.73357 Z M771.742379,91.3808227 C771.742379,91.3808227 777.29597,86.4010099 777.29597,79.2017154 C777.29597,76.6778297 775.19871,73.4719538 771.742379,73.4719538 C768.286049,73.4719538 766.13097,76.6709718 766.13097,79.2017154 C766.13097,86.5780764 771.742379,91.3808227 771.742379,91.3808227 Z" id="path-1"></path>
        <mask id="mask-3" maskContentUnits="userSpaceOnUse" maskUnits="objectBoundingBox" x="-4" y="-4" width="907.076989" height="250.55538">
            <rect x="-4" y="-4" width="907.076989" height="250.55538" fill="white"></rect>
            <use xlink:href="#path-1" fill="black"></use>
        </mask>
    </defs>
    <g id="Page-1" stroke="none" stroke-width="1" fill="none" fill-rule="evenodd">
        <g id="logo_color_h">
            <g id="cscw" transform="translate(5.000000, 5.000000)">
                <mask id="mask-2" fill="white">
                    <use xlink:href="#path-1"></use>
                </mask>
                <g id="Mask">
                    <use fill="#E5CF00" fill-rule="evenodd" xlink:href="#path-1"></use>
                    <use stroke="#E5CF00" mask="url(#mask-3)" stroke-width="8" xlink:href="#path-1"></use>
                </g>
                <g id="cs" mask="url(#mask-2)">
                    <g transform="translate(-34.000000, -64.000000)">
                        <polygon id="Path-3" fill="#D9D7BD" points="153 186 142.635165 34.3746405 190.573024 34.3746405"></polygon>
                        <polygon id="Path-3" fill="#D9D7BD" points="280.469621 305 271.234811 176.551949 220.2047 186"></polygon>
                        <polygon id="Path-3" fill="#344591" points="280.469621 305 271.234811 176.551949 314.265929 186"></polygon>
                        <polygon id="Path-4" fill="#A23024" points="153.056687 184.176043 143.426946 0.568761637 72.728707 19.2420282"></polygon>
                        <polygon id="Path-4" fill="#A23024" points="153.056687 184.176043 262 86.4888414 288.63053 142.492175"></polygon>
                        <polygon id="Path-4" fill="#A23024" points="390 133.004047 484.890844 80.6003404 481.268164 171.687679"></polygon>
                        <polygon id="Path-4" fill="#A23024" points="390 236.543669 485.450712 186 489.890844 240.40991"></polygon>
                        <polygon id="Path-4" fill="#A23024" points="390 236.543669 336.07446 305 390 322.585457"></polygon>
                        <polygon id="Path-4" fill="#D9D7BD" points="390 133.004047 484.890844 80.6003404 428.202495 47.9040105"></polygon>
                        <polygon id="Path-4" fill="#344591" points="390 133.004047 368.352535 38.1952292 428.202495 47.9040105"></polygon>
                        <polygon id="Path-4" fill="#344591" points="390 133.004047 327.462371 201 371.101826 225.984206"></polygon>
                        <polygon id="Path-4" fill="#344591" points="153.056687 184.176043 0.805343836 136.709061 72.728707 19.2420282"></polygon>
                        <polygon id="Path-4" fill="#344591" points="153.056687 184.176043 6.64479042 201 6.64479042 246.267212"></polygon>
                        <polygon id="Path-4" fill="#344591" points="153.056687 184.176043 80.2540005 343 153 362.915761"></polygon>
                    </g>
                </g>
                <g id="cw" mask="url(#mask-2)">
                    <g transform="translate(450.000000, -18.000000)">
                        <polygon id="Path-5" fill="#A23024" points="129.569049 138.795016 194.632429 15.3768671 236.313291 49.8492907"></polygon>
                        <polygon id="Path-5" fill="#A23024" points="129.569049 138.795016 129.569049 0.194630684 76.0524464 13"></polygon>
                        <polygon id="Path-5" fill="#344591" points="129.569049 138.795016 11 76.1526715 32.2746551 41.4264296"></polygon>
                        <polygon id="Path-5" fill="#344591" points="129.569049 138.795016 11 192.829017 24.2032347 246.863019"></polygon>
                        <polygon id="Path-5" fill="#344591" points="129.569049 138.795016 217.850942 259 167.184914 272.686097"></polygon>
                        <polygon id="Path-5" fill="#D9D7BD" points="129.569049 138.795016 11 76.1526715 0.559088194 114.713521"></polygon>
                        <polygon id="Path-6" fill="#344591" points="301.56734 140.031155 328.935607 205.685112 303.017039 252.658446 261.073887 140"></polygon>
                        <polygon id="Path-6" fill="#A23024" points="353.403122 75.1220431 364.849357 140 340.835842 140 320.525728 107.561022 322.519324 98.4959698"></polygon>
                        <polygon id="Path-7" fill="#A23024" points="321.579002 98.6752805 305.37468 57.4761757 280.391192 92.694492"></polygon>
                    </g>
                </g>
            </g>
            <g id="2018_color" transform="translate(1132.000000, 59.000000)">
                <path d="M36.225,174.5 C56.235,174.5 72.105,158.63 72.105,138.62 L72.105,37.535 C72.105,17.87 56.235,1.655 36.225,1.655 C16.56,1.655 0.69,17.87 0.69,37.535 L0.69,138.62 C0.69,158.63 16.56,174.5 36.225,174.5 Z" id="Path1" fill="#E5CF00"></path>
                <path d="M261.51,175.19 C279.105,174.155 296.7,160.7 296.7,141.035 C296.7,122.06 282.21,105.155 261.51,104.81 C242.88,104.81 226.665,120.68 226.665,141.035 C226.665,159.665 242.535,173.465 261.51,175.19 Z" id="Path2" fill="#344591"></path>
                <path d="M261.51,0.275 C243.57,0.965 226.665,14.765 226.665,34.43 C226.665,54.095 240.81,70.655 260.475,70.655 L262.89,70.655 C282.555,70.655 296.7,54.095 296.7,34.43 C296.7,15.455 280.83,1.655 261.51,0.275 Z" id="Path3" fill="#A23024"></path>
            </g>
            <path d="M1040.585,214.535 L965.03,214.535 L1048.175,108.62 C1060.94,92.405 1059.905,67.91 1052.315,49.97 C1045.76,33.065 1032.305,19.61 1015.4,12.02 C989.525,0.635 957.785,5.465 936.395,26.855 L936.395,27.2 C924.32,39.275 916.385,56.18 916.385,74.81 C916.385,84.125 924.32,91.715 933.635,91.715 C943.295,91.715 950.885,84.125 950.885,74.81 C950.885,62.39 957.785,51.005 968.135,44.795 C999.875,26.855 1034.375,59.63 1019.54,91.715 L918.8,219.71 C916.04,223.85 914.315,226.61 914.315,231.44 C914.315,240.755 921.56,248 930.875,248 L1040.585,248 C1049.9,248 1057.145,240.755 1057.145,231.44 C1057.145,222.125 1049.9,214.535 1040.585,214.535 Z M1218.26,178.31 C1217.915,216.605 1186.52,247.655 1148.225,247.655 C1109.93,247.655 1078.88,216.605 1078.535,178.31 L1078.535,75.845 C1078.88,37.55 1109.93,6.5 1148.225,6.5 C1186.52,6.5 1217.915,37.55 1218.26,75.845 L1218.26,178.31 Z M1148.225,213.5 C1168.235,213.5 1184.105,197.63 1184.105,177.62 L1184.105,76.535 C1184.105,56.87 1168.235,40.655 1148.225,40.655 C1128.56,40.655 1112.69,56.87 1112.69,76.535 L1112.69,177.62 C1112.69,197.63 1128.56,213.5 1148.225,213.5 Z M1232.06,23.405 C1232.06,32.72 1239.65,40.31 1249.655,40.31 L1249.655,231.095 C1249.655,240.755 1257.245,248.345 1266.905,248.345 C1276.22,248.345 1283.81,240.755 1283.81,231.095 L1283.81,22.025 C1283.465,15.47 1277.6,6.5 1269.665,6.5 L1249.31,6.5 C1239.65,6.5 1232.06,13.745 1232.06,23.405 Z M1442.855,73.43 C1442.855,95.51 1433.195,114.83 1418.705,126.905 C1433.195,139.325 1442.855,157.955 1442.855,180.035 C1442.855,217.295 1410.77,246.62 1373.51,248 C1338.665,248 1304.51,218.33 1304.51,180.035 C1304.51,157.955 1314.17,139.325 1328.66,126.905 C1314.17,114.83 1304.51,95.51 1304.51,73.43 C1304.51,36.515 1334.87,5.81 1373.51,5.81 C1412.15,5.81 1440.785,33.755 1442.855,73.43 Z M1373.51,214.19 C1391.105,213.155 1408.7,199.7 1408.7,180.035 C1408.7,161.06 1394.21,144.155 1373.51,143.81 C1354.88,143.81 1338.665,159.68 1338.665,180.035 C1338.665,198.665 1354.535,212.465 1373.51,214.19 Z M1373.51,39.275 C1355.57,39.965 1338.665,53.765 1338.665,73.43 C1338.665,93.095 1352.81,109.655 1372.475,109.655 L1374.89,109.655 C1394.555,109.655 1408.7,93.095 1408.7,73.43 C1408.7,54.455 1392.83,40.655 1373.51,39.275 Z" id="2018" fill="#000000"></path>
        </g>
    </g>
</svg>